# xmcd
#
# Track frame offsets: 
#        150
#        13313
#        25017
#        40167
#        53848
#        65704
#        83863
#        99535
#        117019
#        133051
#        145067
#        161394
#        172327
#        185187
#        198395
#
# Disc length: 2847 seconds
#
# Revision: 6
# Processed by: cddbd v1.5.2PL0 Copyright (c) Steve Scherf et al.
# Submitted via: ExactAudioCopy v0.99pb5
#
DISCID=d60b1d0f
DTITLE=Various Artist - Classic Country - TL 626-25 - 1989 - 1992 - CD 1
DYEAR=2001
DGENRE=Country
TTITLE0=Alan Jackson - Don't rock the jukebox
TTITLE1=Dolly Parton - Why'd you come in here lookin' like that
TTITLE2=Diamond Rio - Meet me in the middle
TTITLE3=Brooks and Dunn - Brand new man
TTITLE4=Dwight Yoakam - It only hurts when I cry
TTITLE5=Pam Tillis - Maybe it was Memphis
TTITLE6=Randy Travis - He walked on water
TTITLE7=K.T. Oslin - Come next Monday
TTITLE8=Radney Foster - Nobody wins
TTITLE9=Rosanne Cash - I don't want to spoil the party
TTITLE10=Keith Whitley - I'm no stranger to the rain
TTITLE11=Mark Chesnutt - Old flames have new names
TTITLE12=Clint Black - Killin' time
TTITLE13=Sawyer Brown - The dirt road
TTITLE14=Mary Chapin Carpenter - Down at the twist and shout
EXTD=
EXTT0=
EXTT1=
EXTT2=
EXTT3=
EXTT4=
EXTT5=
EXTT6=
EXTT7=
EXTT8=
EXTT9=
EXTT10=
EXTT11=
EXTT12=
EXTT13=
EXTT14=
PLAYORDER=
